<svg width="586" height="396" viewBox="0 0 586 396" fill="none" xmlns="http://www.w3.org/2000/svg">
<path d="M435.825 307.635C375.702 304.472 287.888 302.905 176.587 309.212C114.813 312.712 64.4688 253.521 70.8599 184.317C73.4296 156.518 80.7968 128.551 96.5658 105.173C143.998 34.8421 257.209 8.92082 340.735 93.4794C365.991 119.053 433.08 123.718 480.512 160.835C539.491 207.009 507.603 311.408 435.825 307.635Z" fill="#9E96FF"/>
<path d="M203.972 64.366C214.366 52.6746 214.366 33.7191 203.972 22.0276C193.578 10.3362 176.726 10.3362 166.332 22.0276C155.939 33.7191 155.939 52.6746 166.332 64.366C176.726 76.0575 193.578 76.0575 203.972 64.366Z" stroke="#FFADCB" stroke-width="0.7528" stroke-miterlimit="10" stroke-linecap="round" stroke-dasharray="3.01 3.01"/>
<path d="M101.888 347.044C105.266 330.953 96.4077 314.828 82.1023 311.029C67.797 307.229 53.4619 317.193 50.084 333.284C46.7061 349.376 55.5646 365.5 69.8699 369.3C84.1752 373.1 98.5103 363.135 101.888 347.044Z" stroke="#FFADCB" stroke-width="1.4624" stroke-miterlimit="10" stroke-linecap="round" stroke-dasharray="3.01 3.01"/>
<path opacity="0.53" d="M223.067 93.104C237.13 93.104 248.531 80.2801 248.531 64.461C248.531 48.642 237.13 35.8181 223.067 35.8181C209.003 35.8181 197.603 48.642 197.603 64.461C197.603 80.2801 209.003 93.104 223.067 93.104Z" fill="#090909"/>
<path opacity="0.53" d="M487.63 380.468C499.547 372.068 503.154 354.391 495.687 340.986C488.219 327.581 472.504 323.524 460.587 331.924C448.67 340.323 445.063 358 452.53 371.405C459.998 384.81 475.712 388.868 487.63 380.468Z" fill="#090909"/>
<path opacity="0.82" d="M496.781 120.733C521.138 120.733 540.884 98.5227 540.884 71.1244C540.884 43.7261 521.138 21.5154 496.781 21.5154C472.423 21.5154 452.678 43.7261 452.678 71.1244C452.678 98.5227 472.423 120.733 496.781 120.733Z" fill="#BAF1FF"/>
<path d="M383.536 63.406C385.808 52.6874 379.925 41.9266 370.396 39.3712C360.867 36.8158 351.3 43.4334 349.028 54.152C346.757 64.8706 352.64 75.6313 362.169 78.1867C371.698 80.7421 381.264 74.1246 383.536 63.406Z" stroke="#FFADCB" stroke-width="0.7528" stroke-miterlimit="10" stroke-linecap="round" stroke-dasharray="3.01 3.01"/>
<path d="M533.675 265.709C544.831 260.656 550.234 246.387 545.742 233.839C541.25 221.29 528.565 215.213 517.409 220.266C506.253 225.319 500.85 239.588 505.342 252.136C509.834 264.685 522.52 270.762 533.675 265.709Z" stroke="#FFADCB" stroke-width="1.3466" stroke-miterlimit="10" stroke-linecap="round" stroke-dasharray="3.7 3.7"/>
<path d="M49.7838 234.629L1 204.288L48.7492 171.938L49.7838 234.629Z" stroke="#FFADCB" stroke-width="0.7528" stroke-miterlimit="10" stroke-linecap="round" stroke-dasharray="3.01 3.01"/>
<path d="M558.198 122.92L498.442 150.249L507.286 78.3696L558.198 122.92Z" stroke="#FFADCB" stroke-width="1.3466" stroke-miterlimit="10" stroke-linecap="round" stroke-dasharray="3.7 3.7"/>
<path opacity="0.52" d="M509.328 331.595L523.962 242.775L585.036 301.441L509.328 331.595Z" fill="#FFADCB"/>
<path opacity="0.82" d="M4.98047 272.845L29.8104 204.776L69.8002 263L4.98047 272.845Z" fill="#BAF1FF"/>
<path opacity="0.52" d="M78.0515 120.761L32.1045 92.1843L77.0837 61.7112L78.0515 120.761Z" fill="#FFADCB"/>
<path d="M179.918 339.976H194.786L192.85 220.139H181.854L179.918 339.976Z" fill="#102A42"/>
<path d="M181.858 332.261H192.854V220.149H181.858V332.261Z" fill="#102A42"/>
<path d="M416.886 333.678C431.587 332.336 440.056 330.769 440.056 329.089C440.056 324.209 368.444 320.248 280.104 320.248C191.765 320.248 120.153 324.209 120.153 329.089C120.153 330.769 128.622 332.336 143.323 333.678C88.8073 335.968 53.5898 339.582 53.5898 343.664C53.5898 350.581 155.004 356.184 280.096 356.184C405.189 356.184 506.602 350.581 506.602 343.664C506.619 339.591 471.41 335.968 416.886 333.678Z" fill="#9E96FF"/>
<path d="M334.68 203.331H435.017C437.629 203.331 439.414 200.947 439.005 198.009L430.578 137.26C430.17 134.323 427.725 131.939 425.113 131.939H324.776C322.164 131.939 320.379 134.323 320.788 137.26L329.215 198.009C329.623 200.947 332.068 203.331 334.68 203.331Z" fill="#5594F4"/>
<path d="M328.956 194.021H438.163C438.329 194.021 438.438 193.871 438.413 193.693L430.578 137.27C430.17 134.333 427.725 131.949 425.113 131.949H324.776C322.164 131.949 320.379 134.333 320.788 137.27L328.622 193.693C328.639 193.871 328.789 194.021 328.956 194.021Z" fill="#883475"/>
<path opacity="0.42" d="M334.68 203.331H346.769L401.043 131.949H324.776C322.164 131.949 320.379 134.333 320.788 137.27L329.215 198.019C329.623 200.947 332.068 203.331 334.68 203.331Z" fill="#883475"/>
<path d="M376.939 216.685H390.297L388.086 200.722H374.72L376.939 216.685Z" fill="#5594F4"/>
<path d="M376.014 210.003H389.372L388.446 203.331H375.088L376.014 210.003Z" fill="#5594F4"/>
<path d="M370.388 216.319H335.555V214.583H370.872L370.388 216.319Z" fill="#5594F4"/>
<path d="M246.789 323.73V264.905H257.593V323.58L292.135 328.385V330.29H213.857V328.939L246.789 323.73Z" fill="#235F8B"/>
<path opacity="0.42" d="M250.753 323.58V264.905H257.594V323.58L292.136 328.385V330.29H285.295V328.385L250.753 323.58Z" fill="#102A42"/>
<path d="M278.702 117.139H225.847C215.985 117.139 207.983 126.289 207.983 137.589V234.836C207.983 251.729 218.146 266.407 232.513 270.255C249.083 274.703 266.32 276.28 290.466 270.47C307.704 266.322 315.513 250.387 298.242 233.1C298.242 233.1 296.957 230.65 296.949 229.214L296.557 137.485C296.515 126.233 288.53 117.139 278.702 117.139Z" fill="#090909"/>
<path opacity="0.43" d="M225.848 117.139H236.177C226.315 117.139 218.314 126.289 218.314 137.589V234.836C218.314 251.729 228.476 266.407 242.843 270.255C250.786 272.385 260.039 274.196 269.634 274.713C256.468 275.463 243.294 273.155 232.523 270.255C218.155 266.397 207.993 251.729 207.993 234.836V137.589C207.993 126.299 215.986 117.139 225.848 117.139Z" fill="#090909"/>
<path d="M269.108 157.363L264.502 153.111L246.964 151.206L241.875 151.816L244.278 160.131L256.91 172.135L269.108 157.363Z" fill="#CE8879"/>
<path d="M248.042 126.533C248.042 126.533 252.456 151.131 245.889 157.109C241.359 161.229 257.145 163.444 257.145 163.444L262.826 154.106C262.826 154.106 258.838 150.728 261.341 138.105C263.169 128.908 248.042 126.533 248.042 126.533Z" fill="#CE8879"/>
<path opacity="0.31" d="M255.492 144.993L261.674 149.329L261.858 149.358C261.858 149.358 251.479 154.97 248.759 150.596L249.176 144.581L255.492 144.993Z" fill="#CE8879"/>
<path d="M270.341 134.783C270.425 135.796 270.417 136.81 270.258 137.908C269.716 141.709 267.471 144.815 265.419 147.8C259.095 156.987 246.763 142.516 246.805 133.488C246.855 123.371 251.527 115.787 258.744 115.009C263.225 114.53 268.656 115.787 270.033 124.365C270.425 126.777 269.39 128.908 269.899 131.751C270.1 132.802 270.258 133.788 270.341 134.783Z" fill="#CE8879"/>
<path opacity="0.31" d="M258.752 115.009C260.521 114.822 262.398 114.915 264.125 115.61C263.983 115.619 263.833 115.629 263.691 115.648C256.474 116.417 253.487 121.973 253.429 132.09C253.396 137.862 256.558 150.025 262.039 150.494C255.506 152.53 246.771 141.081 246.813 133.488C246.871 123.371 251.535 115.788 258.752 115.009Z" fill="#CE8879"/>
<path d="M255.85 119.56C255.85 119.56 256.034 119.673 256.276 119.973C258.203 122.366 260.756 123.971 263.593 124.262C265.771 124.487 268.182 124.178 271.052 127.143C271.052 127.143 272.929 114.689 261.198 113.357C261.198 113.357 256.584 109.049 248.775 112.259C240.573 115.628 237.295 130.334 242.342 143.595C242.342 143.595 246.606 149.742 253.756 152.051C253.756 152.051 248.959 129.865 255.85 119.56Z" fill="#16232B"/>
<g opacity="0.48">
<path d="M246.179 113.845C243.593 118.199 242.466 124.487 243.234 131.113C243.993 137.673 247.506 143.483 252.72 146.561C252.77 146.589 252.812 146.617 252.862 146.645C253.296 149.911 253.755 152.051 253.755 152.051C246.605 149.742 242.341 143.595 242.341 143.595C237.877 131.845 239.947 118.978 246.179 113.845Z" fill="#16232B"/>
</g>
<path opacity="0.11" d="M229.735 219.285C230.745 225.282 233.798 237.689 242.183 243.592C253.047 251.222 262.817 253.934 262.817 253.934C262.817 253.934 267.33 251.907 270.559 253.381C270.559 253.381 266.363 254.676 263.467 259.293C260.773 263.582 258.028 293.877 257.652 298.119C257.752 292.244 257.727 286.425 257.502 281.611C256.809 266.679 261.857 257.801 261.857 257.801C261.857 257.801 249.267 256.299 235.4 249.411C224.529 244.005 224.546 224.925 229.735 219.285Z" fill="#275E75"/>
<path d="M244.186 228.708C241.666 232.227 241.549 237.267 243.735 241.068C246.213 245.385 250.71 251.119 258.011 253.859C272.303 259.227 285.319 257.05 285.319 257.05C285.319 257.05 282.782 272.151 284.509 281.357C286.779 293.445 289.057 312.234 289.39 321.863C289.732 331.839 285.552 330.422 294.38 334.739C303.207 339.056 317.24 343.795 316.498 341.158C315.755 338.521 300.67 323.12 300.67 323.12C300.67 323.12 305.451 276.036 305.126 262.193C304.809 248.35 308.964 238.055 288.848 229.73C271.56 222.589 252.22 217.483 244.186 228.708Z" fill="#CE8879"/>
<path d="M302.406 309.306C297.25 309.465 292.452 309.202 288.381 308.799C287.438 299.695 285.969 289.147 284.509 281.357C282.782 272.151 285.319 257.05 285.319 257.05C285.319 257.05 272.303 259.228 258.011 253.859C250.71 251.119 246.222 245.385 243.735 241.068C241.549 237.267 241.666 232.227 244.186 228.708C252.229 217.483 271.56 222.589 288.848 229.74C308.964 238.064 306.261 248.36 306.578 262.203C306.786 271.212 304.225 294.28 302.406 309.306Z" fill="#275E75"/>
<path opacity="0.11" d="M302.406 309.306C297.25 309.465 292.452 309.202 288.381 308.799C287.438 299.695 285.969 289.147 284.509 281.357C282.782 272.151 285.319 257.05 285.319 257.05C285.319 257.05 272.303 259.228 258.011 253.859C250.71 251.119 246.222 245.385 243.735 241.068C241.549 237.267 241.666 232.227 244.186 228.708C252.229 217.483 271.56 222.589 288.848 229.74C308.964 238.064 306.261 248.36 306.578 262.203C306.786 271.212 304.225 294.28 302.406 309.306Z" fill="#275E75"/>
<path opacity="0.35" d="M262.35 231.073C262.325 230.078 263.293 229.449 264.027 229.993C266.43 231.767 273.547 233.522 285.47 245.066C285.47 245.066 292.178 249.176 291.477 255.502C290.584 263.629 284.01 284.06 288.381 305.739C288.623 306.941 288.782 307.964 288.865 308.855C288.707 308.836 288.532 308.827 288.373 308.808C288.14 306.556 287.873 304.21 287.58 301.835C287.572 301.779 287.564 301.723 287.555 301.657C287.347 299.921 287.122 298.194 286.88 296.458C286.871 296.383 286.863 296.317 286.855 296.242C286.788 295.744 286.721 295.238 286.646 294.74C286.638 294.665 286.621 294.581 286.613 294.506C286.454 293.379 286.296 292.272 286.129 291.174C286.112 291.061 286.095 290.958 286.079 290.845C286.012 290.414 285.954 289.991 285.887 289.569C285.862 289.428 285.845 289.297 285.82 289.156C285.753 288.715 285.687 288.283 285.611 287.852C285.595 287.767 285.586 287.683 285.57 287.598C285.486 287.082 285.403 286.575 285.319 286.068C285.303 285.975 285.286 285.89 285.269 285.796C285.203 285.393 285.136 284.999 285.069 284.604C285.044 284.454 285.019 284.313 284.994 284.163C284.936 283.816 284.869 283.469 284.81 283.122C284.785 282.99 284.76 282.859 284.735 282.727C284.652 282.268 284.569 281.808 284.485 281.367C284.051 279.067 283.884 276.402 283.884 273.699V273.69C283.868 265.562 285.294 257.06 285.294 257.06C285.294 257.06 282.8 257.472 278.803 257.491C276.517 257.501 273.739 257.379 270.652 256.984C269.108 256.787 267.49 256.515 265.813 256.149C264.845 255.943 263.86 255.699 262.859 255.436L262.35 231.073Z" fill="#275E75"/>
<path d="M234.392 222.147C231.396 225.132 233.115 230.003 234.717 234.17C236.528 238.9 230.22 242.71 237.012 246.82C250.319 254.854 261.858 257.792 261.858 257.792C261.858 257.792 257.144 272.197 257.503 281.601C257.97 293.961 257.47 312.919 256.385 322.473C255.259 332.374 251.346 330.168 259.422 336.118C267.498 342.069 280.631 349.436 280.289 346.695C279.947 343.955 267.323 325.879 267.323 325.879C267.323 325.879 278.42 280.663 280.13 266.951C281.841 253.24 287.948 245.272 269.334 233.203C253.348 222.832 243.962 212.622 234.392 222.147Z" fill="#CE8879"/>
<path d="M271.061 312.581C265.955 311.746 261.257 310.573 257.303 309.39C257.703 300.24 257.803 289.55 257.503 281.601C257.144 272.197 261.858 257.792 261.858 257.792C261.858 257.792 249.268 256.29 235.401 249.401C223.22 243.348 224.697 220.139 231.813 217.868C244.028 213.964 253.348 221.181 269.342 231.542C287.956 243.601 283.776 253.24 282.066 266.951C280.956 275.867 275.057 298.119 271.061 312.581Z" fill="#275E75"/>
<path d="M271.061 312.581C265.955 311.746 261.257 310.573 257.303 309.39C257.703 300.24 257.87 289.55 257.503 281.601C256.81 266.67 261.858 257.791 261.858 257.791C261.858 257.791 249.268 256.29 235.401 249.401C223.22 243.348 224.697 220.139 231.813 217.868C244.028 213.964 253.348 221.181 269.342 231.542C287.956 243.601 283.776 253.24 282.066 266.951C280.956 275.867 275.057 298.119 271.061 312.581Z" fill="#275E75"/>
<path d="M276.668 339.901C278.645 343.063 280.181 345.766 280.297 346.695C280.64 349.436 267.499 342.078 259.431 336.118C251.354 330.168 251.538 327.963 256.394 322.473C256.385 322.473 266.231 335.461 276.668 339.901Z" fill="#636363"/>
<path d="M312.151 335.264C314.612 337.939 316.573 340.257 316.84 341.139C317.632 343.758 303.507 339.403 294.588 335.321C285.669 331.238 285.485 329.042 289.331 322.585C289.34 322.585 301.171 333.19 312.151 335.264Z" fill="#636363"/>
<path opacity="0.11" d="M231.813 217.868C233.014 217.483 234.182 217.211 235.333 217.033C232.188 224.653 233.164 239.022 242.208 243.958C255.858 251.4 265.97 255.614 265.97 255.614C265.97 255.614 262.833 262.155 261.373 277.021C260.614 284.764 261.098 301.657 262.408 310.788C260.606 310.338 258.895 309.869 257.31 309.39C257.71 300.24 257.877 289.55 257.51 281.601C256.818 266.67 261.865 257.791 261.865 257.791C261.865 257.791 249.275 256.29 235.409 249.401C223.227 243.357 224.696 220.139 231.813 217.868Z" fill="#275E75"/>
<path d="M241.231 155.805L241.74 151.272C241.74 151.272 233.505 150.709 227.94 164.561C222.375 178.413 216.56 213.307 225.279 217.736C233.989 222.166 249.475 219.125 249.475 219.125V206.39L236.409 201.125C236.409 201.125 242.833 181.942 244.711 169.15C245.42 164.317 244.143 159.39 241.231 155.805Z" fill="#883475"/>
<path d="M240.031 151.816C243.009 150.606 247.581 150.962 248.749 151.253C250.084 155.176 257.143 164.111 257.143 164.111C257.143 164.111 260.188 156.509 262.341 152.877C265.286 152.736 269.082 154.322 271.41 155.477C272.787 156.152 273.921 157.335 274.672 158.818C276.783 163.013 279.244 174.885 279.703 178.967C280.913 189.647 286.854 218.853 286.854 218.853C286.854 218.853 236.159 231.589 229.201 222.757C222.259 213.907 231.403 155.326 240.031 151.816Z" fill="#883475"/>
<path opacity="0.39" d="M271.585 171.121L274.155 192.857L268.74 197.84L271.585 171.121Z" fill="#883475"/>
<path opacity="0.39" d="M240.323 167.977C240.323 167.977 237.294 190.614 235.434 195.691C235.434 195.691 237.987 191.233 240.79 178.704C241.616 175.035 242.909 167.489 240.323 167.977Z" fill="#883475"/>
<path opacity="0.39" d="M236.41 203.199L246.397 207.554L234.666 200.29L236.41 203.199Z" fill="#883475"/>
<path d="M209.759 213.842C207.498 213.373 206.688 211.13 206.688 209.187V201.951C206.688 199.914 208.157 198.263 209.967 198.263L214.131 199.06V215.015L209.759 213.842ZM209.892 200.543C209.233 200.59 208.708 201.21 208.708 201.96V209.196C208.708 209.994 208.891 211.374 210.143 211.627L212.112 212.152V200.984L209.892 200.543Z" fill="#275E75"/>
<path d="M212.164 198.591C212.181 197.812 212.832 197.24 213.516 197.371C215.118 197.671 224.929 197.625 226.556 197.259C227.249 197.099 227.95 197.662 227.958 198.469C227.958 198.479 227.958 198.479 227.958 198.488V213.673C227.958 215.691 226.915 217.568 225.255 218.347C221.634 220.045 217.287 220.073 214.1 217.708C212.873 216.798 212.164 215.231 212.164 213.588V198.648C212.164 198.619 212.164 198.61 212.164 198.591Z" fill="#275E75"/>
<path opacity="0.13" d="M220.865 213.776C222.984 213.241 224.594 211.298 224.97 208.896L226.78 197.202C226.997 197.146 227.206 197.09 227.389 197.033C227.723 197.399 227.948 197.897 227.948 198.488V213.748C227.948 215.756 226.889 217.577 225.237 218.356C221.624 220.045 217.302 220.073 214.115 217.737C212.88 216.826 212.154 215.25 212.154 213.588V213.382C214.899 214.405 217.986 214.508 220.865 213.776Z" fill="#275E75"/>
<path d="M249.234 217.145H313.579L317.934 175.598H253.59L249.234 217.145Z" fill="#5594F4"/>
<path d="M273.863 198.206C273.863 201.36 277.66 203.912 282.332 203.912C287.004 203.912 290.8 201.36 290.8 198.206C290.8 195.053 287.004 192.5 282.332 192.5C277.66 192.5 273.863 195.053 273.863 198.206Z" fill="#5594F4"/>
<path d="M462.49 339.976H477.358L475.422 220.139H464.426L462.49 339.976Z" fill="#102A42"/>
<path d="M315.263 217.464H325.842C328.52 217.464 330.798 215.775 331.215 213.476L334.803 193.429H306.302L309.889 213.476C310.307 215.766 312.584 217.464 315.263 217.464Z" fill="#636363"/>
<path d="M306.277 193.561C306.277 194.265 312.585 194.846 320.711 194.846C328.838 194.846 334.637 194.274 334.637 193.561C334.637 192.847 328.83 192.275 320.711 192.275C312.585 192.275 306.277 192.847 306.277 193.561Z" fill="#2C1E1C"/>
<path opacity="0.51" d="M306.277 193.561C306.277 194.265 312.585 194.846 320.711 194.846C328.838 194.846 334.637 194.274 334.637 193.561C334.637 192.847 328.83 192.275 320.711 192.275C312.585 192.275 306.277 192.847 306.277 193.561Z" fill="#2C1E1C"/>
<path d="M319.617 147.255C319.617 147.255 312.375 159.259 316.981 183.218C316.981 183.218 317.757 186.832 319 189.966C320.193 192.969 323.28 192.547 323.689 189.328C324.031 186.644 323.906 182.421 322.554 175.776C319.617 161.211 319.617 147.255 319.617 147.255Z" fill="#41897B"/>
<path opacity="0.45" d="M322.564 175.776C323.907 182.43 324.04 186.653 323.698 189.328C323.64 189.807 323.515 190.22 323.348 190.567C323.223 190.398 323.114 190.22 323.006 190.013C321.504 187.095 320.419 183.613 320.419 183.613C314.47 162.872 318.659 150.033 319.618 147.537C319.635 149.573 319.86 162.412 322.564 175.776Z" fill="#41897B"/>
<path d="M331.149 138.124C331.149 138.124 318.743 152.304 319.677 185.931C319.677 185.931 319.936 191.027 320.92 195.597C321.872 199.98 326.127 200.271 327.395 196.048C328.454 192.528 329.205 186.785 328.847 177.437C328.079 156.95 331.149 138.124 331.149 138.124Z" fill="#41897B"/>
<path opacity="0.45" d="M328.856 177.437C329.207 186.785 328.456 192.528 327.404 196.048C327.212 196.676 326.962 197.202 326.662 197.624C326.537 197.362 326.42 197.089 326.32 196.78C324.943 192.425 324.242 187.414 324.242 187.414C320.78 157.766 329.257 141.605 331.1 138.499C330.667 141.258 328.147 158.649 328.856 177.437Z" fill="#41897B"/>
<path d="M340.085 153.008C340.085 153.008 326.227 161.689 323.324 187.949C323.324 187.949 322.998 191.947 323.449 195.682C323.883 199.257 328.046 200.28 329.781 197.24C331.225 194.706 332.618 190.389 333.336 183.078C334.904 167.039 340.085 153.008 340.085 153.008Z" fill="#41897B"/>
<path opacity="0.45" d="M333.328 183.078C332.61 190.398 331.217 194.706 329.774 197.24C329.515 197.69 329.206 198.047 328.864 198.328C328.772 198.103 328.689 197.868 328.622 197.606C327.755 193.964 327.638 189.957 327.638 189.957C327.604 166.316 337.808 155.364 339.978 153.299C339.252 155.354 334.78 168.371 333.328 183.078Z" fill="#41897B"/>
<path d="M303.865 148.447C303.865 148.447 319.034 158.217 321.937 187.188C321.937 187.188 322.254 191.599 321.712 195.701C321.194 199.642 316.589 200.703 314.72 197.324C313.16 194.509 311.675 189.741 310.965 181.67C309.414 163.989 303.865 148.447 303.865 148.447Z" fill="#41897B"/>
<path opacity="0.45" d="M310.966 181.67C311.676 189.741 313.161 194.518 314.721 197.324C314.996 197.821 315.338 198.225 315.714 198.535C315.822 198.291 315.914 198.028 315.989 197.746C316.982 193.748 317.157 189.328 317.157 189.328C317.466 163.275 306.352 151.066 303.975 148.757C304.759 151.037 309.54 165.453 310.966 181.67Z" fill="#41897B"/>
<path d="M305.885 163.707C305.885 163.707 315.221 169.047 317.716 186.297C317.716 186.297 318.016 188.925 317.807 191.402C317.599 193.777 314.879 194.565 313.661 192.604C312.651 190.971 311.633 188.164 310.999 183.359C309.606 172.82 305.885 163.707 305.885 163.707Z" fill="#41897B"/>
<path opacity="0.45" d="M310.998 183.359C311.632 188.164 312.65 190.971 313.66 192.604C313.835 192.895 314.052 193.12 314.286 193.298C314.344 193.148 314.394 192.988 314.428 192.819C314.92 190.398 314.911 187.742 314.911 187.742C314.411 172.144 307.436 165.199 305.959 163.895C306.485 165.228 309.722 173.693 310.998 183.359Z" fill="#41897B"/>
<path d="M300.921 168.174C300.921 168.174 311.901 172.707 316.707 191.449C316.707 191.449 317.357 194.321 317.407 197.099C317.457 199.764 314.529 201.041 312.952 199.051C311.642 197.39 310.182 194.434 308.914 189.197C306.127 177.728 300.921 168.174 300.921 168.174Z" fill="#41897B"/>
<path opacity="0.45" d="M308.914 189.197C310.191 194.434 311.643 197.39 312.953 199.051C313.186 199.342 313.453 199.567 313.728 199.727C313.779 199.548 313.812 199.37 313.829 199.173C314.087 196.414 313.762 193.476 313.762 193.476C311.367 176.255 302.815 169.592 301.021 168.372C301.764 169.779 306.353 178.676 308.914 189.197Z" fill="#41897B"/>
<path d="M306.334 193.468L306.325 193.43H306.369C306.351 193.439 306.343 193.458 306.334 193.468Z" fill="#636363"/>
<path d="M320.735 194.837C328.861 194.837 334.66 194.265 334.66 193.551C334.66 193.504 334.635 193.467 334.593 193.42H334.826L331.239 213.466C330.83 215.766 328.544 217.455 325.866 217.455H315.286C312.608 217.455 310.33 215.766 309.913 213.466L306.367 193.683C307.101 194.33 313.125 194.837 320.735 194.837Z" fill="#636363"/>
<path opacity="0.3" d="M331.149 202.298L332.742 193.429H334.803L331.216 213.476C330.807 215.775 328.521 217.464 325.842 217.464H315.263C314.07 217.464 312.952 217.126 312.051 216.554C321.587 216.516 329.689 210.482 331.149 202.298Z" fill="#2C1E1C"/>
<path d="M165.166 232.91L492.11 232.91V216.308L165.166 216.308V232.91Z" fill="#102A42"/>
<path d="M169.67 194.565C169.67 194.565 118.425 217.155 110.699 231.354C102.973 245.554 150.355 322.304 150.355 322.304C150.355 322.304 137.999 347.662 142.371 346.714C146.751 345.766 163.897 329.577 164.005 324.04C164.08 319.882 159.783 319.667 159.149 312.825C157.189 291.812 153.709 266.595 143.405 254.816C135.062 245.272 148.044 235.699 148.044 235.699L169.67 194.565Z" fill="#CE8879"/>
<path d="M153.043 95.0562C153.043 95.0562 158.216 109.931 167.969 115.534C171.574 117.608 161.603 131.254 161.603 131.254L152.634 130.184C152.634 130.184 155.062 121.522 147.97 112.447C144.733 108.28 153.043 95.0562 153.043 95.0562Z" fill="#CE8879"/>
<path d="M135.245 83.278C127.386 86.1216 122.588 96.3794 129.321 106.112C129.447 106.29 131.232 109.772 129.839 112.034C129.547 112.503 129.705 113.141 130.156 113.404C130.898 113.826 131.658 114.38 133.184 113.76C137.348 120.264 146.951 122.939 150.405 120.733C157.547 116.163 160.175 107.313 156.379 97.271C152.458 86.9006 142.487 80.6596 135.245 83.278Z" fill="#CE8879"/>
<path opacity="0.33" d="M135.245 83.278C133.084 84.0663 131.148 85.4084 129.63 87.154C136.622 85.2958 144.798 92.0717 148.945 101.532C152.566 109.791 152.658 116.229 148.119 121.447C149.028 121.353 149.813 121.118 150.405 120.733C157.547 116.163 160.175 107.313 156.379 97.271C152.457 86.9006 142.487 80.6596 135.245 83.278Z" fill="#CE8879"/>
<path d="M141.88 92.1937C141.037 89.9132 139.544 89.8005 137.958 91.5086C137.925 91.5462 137.892 91.5837 137.85 91.6212C135.58 94.1739 128.58 99.9926 123.975 98.8007C118.743 97.4493 119.461 95.7694 119.461 95.7694C119.461 95.7694 122.306 95.6474 124.317 93.5827C124.317 93.5827 122.281 93.9862 121.705 93.1134C121.705 93.1134 124.242 92.2031 125.518 90.8235C127.663 88.5148 128.922 84.0663 131.717 82.9214L129.74 82.7806C129.74 82.7806 132.51 81.5418 133.953 81.523C136.89 81.4761 133.136 80.2842 133.136 80.2842C133.136 80.2842 137.958 76.7742 146.393 78.7357C150.632 79.7211 156.339 84.423 157.882 91.2458C159.96 100.424 161.545 104.751 163.305 105.164C163.305 105.164 161.645 104.826 160.786 103.934C160.786 103.934 162.388 106.787 163.764 107.106C163.764 107.106 161.311 107.895 160.586 106.712C159.851 105.53 162.822 109.781 164.365 109.631C164.365 109.631 160.969 111.226 158.216 109.903C154.87 108.298 152.951 104.497 152.1 100.894C150.548 94.3429 146.377 94.5587 143.565 94.8497C141.12 95.1218 142.263 93.2354 141.88 92.1937Z" fill="#16232B"/>
<path d="M143.742 95.8539C143.742 95.8539 143.116 92.0717 145.352 91.3773C148.155 90.5138 150.2 93.7986 150.308 96.9332C150.416 100.077 148.94 101.532 147.263 99.8519" fill="#CE8879"/>
<path d="M143.406 254.816C153.71 266.604 159.25 291.821 161.211 312.825C161.286 313.632 161.386 314.364 161.511 315.03L147.628 320.924C140.327 308.874 103.716 244.202 110.708 231.354C118.434 217.164 156.28 189.253 156.28 189.253L169.679 194.574L148.045 235.709C148.045 235.699 135.062 245.263 143.406 254.816Z" fill="#5DB0D4"/>
<path opacity="0.3" d="M143.406 254.816C153.71 266.604 159.25 291.821 161.211 312.825C161.286 313.632 161.386 314.364 161.511 315.03L147.628 320.924C140.327 308.874 103.716 244.202 110.708 231.354C118.434 217.164 156.28 189.253 156.28 189.253L169.679 194.574L148.045 235.709C148.045 235.699 135.062 245.263 143.406 254.816Z" fill="#5DB0D4"/>
<path opacity="0.14" d="M126.118 229.524L143.406 254.816C143.406 254.816 138.241 252.808 135.696 265.121C132.885 278.711 126.619 284.051 126.619 284.051L126.118 229.524Z" fill="#5DB0D4"/>
<path d="M158.18 189.347C158.18 189.347 115.412 220.843 109.513 240.655C106.952 249.232 98.35 308.94 94.0198 327.85C92.5514 334.242 75.631 339.553 75.9981 342.735C76.5321 347.38 103.581 341.768 105.383 337.986C106.009 336.672 105.993 335.462 105.709 334.429C104.958 331.726 105.35 328.798 106.86 326.527C113.326 316.767 126.033 293.811 128.37 278.11C130.33 264.924 119.35 258.552 126.05 249.871C132.591 241.396 187.858 229.224 194.499 206.812C196.635 199.605 195.125 191.825 188.659 189.6C179.139 186.306 164.997 183.021 158.18 189.347Z" fill="#CE8879"/>
<path d="M107.312 328.901C103.358 327.484 95.2645 325.814 92.1357 324.556C96.6328 302.896 107.079 248.791 109.507 240.645C115.414 220.833 158.174 189.337 158.174 189.337C164.99 183.021 179.141 186.297 188.652 189.572C195.118 191.796 195.819 199.332 194.492 206.784C189.753 233.466 143.865 239.838 135.254 252.47C129.039 261.592 130.323 264.896 128.363 278.082C126.027 293.783 114.863 316.785 108.397 326.546C107.921 327.278 107.571 328.076 107.312 328.901Z" fill="#5DB0D4"/>
<path opacity="0.13" d="M102.815 325.467C108.797 315.321 118.834 291.671 120.403 275.848C121.721 262.559 120.286 259.34 126.043 249.852C134.027 236.713 179.541 227.525 182.978 200.6C183.612 195.635 183.362 190.68 181.226 187.367C183.854 188.014 186.39 188.793 188.651 189.582C195.118 191.806 195.818 199.342 194.492 206.794C189.753 233.475 143.864 239.847 135.254 252.48C129.038 261.602 130.323 264.905 128.362 278.091C126.026 293.792 114.863 316.795 108.396 326.555C107.921 327.278 107.562 328.066 107.312 328.892C105.918 328.395 104.016 327.86 101.997 327.334C102.197 326.687 102.464 326.058 102.815 325.467Z" fill="#5DB0D4"/>
<path d="M163.665 112.597C163.665 112.597 164.366 119.382 152.468 123.793C152.468 123.793 150.491 151.845 149.89 161.258C148.555 182.111 142.957 191.674 142.114 195.438C140.746 201.585 147.22 195.457 158.058 199.877C177.256 207.704 189.338 216.648 194.235 210.36C199.124 204.072 198.232 181.586 192.174 156.687C186.117 131.789 176.631 116.36 163.665 112.597Z" fill="#636363"/>
<path opacity="0.43" d="M160.402 141.765L156.606 133.234C156.606 133.234 154.478 135.412 153.702 141.765C152.926 148.119 153.11 165.716 153.11 165.716L160.402 141.765Z" fill="#636363"/>
<path opacity="0.43" d="M162.637 162.544L174.977 138.086C174.977 138.086 181.234 170.549 166.066 186.353C156.947 195.86 142.112 193.298 142.112 193.298L162.637 162.544Z" fill="#636363"/>
<path d="M117.701 196.367L96.8674 184.41C95.2154 183.463 94.5563 181.182 95.399 179.324L119.228 192.998L117.701 196.367Z" fill="#16232B"/>
<path d="M126.12 193.974C126.12 193.974 119.428 200.834 116.725 200.036C114.022 199.239 113.78 196.808 112.411 196.714C111.035 196.62 105.753 194.978 106.988 192.941C108.223 190.914 111.852 188.239 111.852 188.239C111.852 188.239 106.496 187.648 106.788 184.345C106.788 184.345 112.228 183.387 114.522 182.909C116.817 182.43 123.984 185.687 123.984 185.687L126.12 193.974Z" fill="#804D3A"/>
<path d="M156.097 136.097L152.609 165.716C152.609 165.716 125.96 180.938 121.989 181.942C118.026 182.946 125.894 196.508 125.894 196.508C125.894 196.508 157.999 189.929 164.991 183.294C174.861 173.927 177.864 141.071 175.336 132.521C172.717 123.69 164.123 123.352 159.376 128.767C157.623 130.757 156.53 133.356 156.097 136.097Z" fill="#636363"/>
<path d="M105.777 330.103L93.5627 328.723C93.5627 328.723 73.9057 340.942 74.0141 343.448C74.1226 345.954 79.4707 345.26 86.7044 344.481C93.9381 343.702 104.885 341.693 105.777 337.939C106.662 334.185 105.777 330.103 105.777 330.103Z" fill="#883475"/>
<path d="M161.179 317.039L150.357 322.304C150.357 322.304 139.252 344.762 140.529 346.818C141.805 348.873 146.011 345.1 151.767 340.126C157.533 335.152 165.868 326.921 164.85 323.205C163.849 319.479 161.179 317.039 161.179 317.039Z" fill="#883475"/>
<path d="M91.9771 333.538C91.4682 333.153 91.0677 332.712 90.6505 332.299C90.442 332.092 90.2417 331.895 90.0248 331.717C89.8079 331.567 89.5909 331.398 89.2822 331.454C89.4992 331.173 89.9163 331.182 90.2083 331.304C90.5087 331.426 90.7673 331.632 91.001 331.858C91.4348 332.327 91.7936 332.881 91.9771 333.538Z" fill="#FFADCB"/>
<path d="M90.0904 334.833C89.5815 334.448 89.181 334.007 88.7638 333.594C88.5552 333.387 88.355 333.19 88.1381 333.012C87.9211 332.862 87.7042 332.693 87.3955 332.749C87.6124 332.468 88.0296 332.477 88.3216 332.609C88.622 332.731 88.8806 332.937 89.1142 333.162C89.5481 333.622 89.9069 334.166 90.0904 334.833Z" fill="#FFADCB"/>
<path d="M88.2057 336.119C87.6967 335.734 87.2962 335.293 86.8791 334.88C86.6705 334.673 86.4702 334.476 86.2533 334.298C86.0364 334.148 85.8194 333.979 85.5107 334.035C85.7277 333.754 86.1448 333.763 86.4369 333.885C86.7372 334.007 86.9959 334.213 87.2295 334.439C87.6633 334.908 88.0221 335.462 88.2057 336.119Z" fill="#FFADCB"/>
<path d="M151.2 326.565C150.599 326.715 150.04 326.743 149.489 326.809C149.214 326.837 148.947 326.874 148.688 326.921C148.438 326.996 148.188 327.062 148.012 327.353C147.979 326.987 148.271 326.649 148.555 326.499C148.847 326.33 149.147 326.264 149.456 326.227C150.04 326.18 150.649 326.264 151.2 326.565Z" fill="#FFADCB"/>
<path d="M150.113 328.977C149.512 329.127 148.953 329.155 148.402 329.221C148.127 329.249 147.86 329.286 147.601 329.333C147.351 329.408 147.101 329.474 146.925 329.765C146.892 329.399 147.184 329.061 147.468 328.911C147.76 328.742 148.06 328.676 148.369 328.639C148.961 328.592 149.562 328.676 150.113 328.977Z" fill="#FFADCB"/>
<path d="M149.18 330.788C148.579 330.938 148.02 330.966 147.47 331.032C147.194 331.06 146.927 331.098 146.669 331.144C146.418 331.22 146.168 331.285 145.993 331.576C145.959 331.21 146.251 330.872 146.535 330.722C146.827 330.553 147.128 330.488 147.436 330.45C148.02 330.403 148.621 330.488 149.18 330.788Z" fill="#FFADCB"/>
<path d="M419.28 136.312C419.055 137.514 418.938 138.734 418.996 140.085C419.197 144.731 421.558 148.813 423.71 152.717C430.327 164.749 447.164 149.283 448.198 138.443C449.358 126.28 444.577 116.444 435.842 114.38C430.427 113.103 423.635 113.77 420.899 123.849C420.131 126.693 421.124 129.405 420.164 132.746C419.822 133.976 419.497 135.13 419.28 136.312Z" fill="#CE8879"/>
<path d="M428.683 129.461C428.325 128.026 427.349 126.899 426.105 126.364C423.511 125.266 418.171 122.545 417.203 118.453C415.91 113.01 418.988 111.489 418.988 111.489L422.209 113.901V108.261C422.209 108.261 426.881 112.512 431.395 111.489C435.909 110.476 449.133 115.065 451.394 126.918C453.655 138.771 445.262 153.646 445.262 153.646L431.07 151.563C431.07 151.563 425.079 143.68 427.198 139.137C429.276 134.689 429.192 131.47 428.683 129.461Z" fill="#16232B"/>
<path d="M417.57 164.101C417.57 164.101 413.315 166.035 408.259 174.575C403.195 183.115 389.754 203.725 389.754 203.725L358.891 212.528L355.02 211.599C354.044 211.364 353.018 211.495 352.108 211.965L346.493 214.893C346.493 214.893 352.676 214.752 357.181 215.071C361.686 215.39 393.567 217.943 396.545 215.165C399.524 212.387 422.093 188.174 422.093 188.174L417.57 164.101Z" fill="#CE8879"/>
<path d="M411.714 229.946C411.714 229.946 368.011 239.453 355.104 252.874C342.205 266.294 368.812 334.683 368.812 334.683C368.812 334.683 348.813 342.115 353.326 343.57C357.84 345.025 377.272 346.386 378.607 340.849C379.316 337.911 378.165 336.175 378.482 334.138C380.618 320.53 383.738 292.572 371.548 275.36C367.368 269.457 373.968 269.739 387.518 270.095C401.067 270.461 416.227 275.538 425.897 266.829C435.576 258.12 414.609 229.928 414.609 229.928" fill="#636363"/>
<g opacity="0.33">
<path d="M377.223 308.564C375.805 297.978 370.982 284.135 367.595 277.613C364.166 271.034 359.502 268.763 359.502 268.763C364.608 268.171 365.551 270.039 367.537 269.166C393.343 257.876 405.916 247.778 405.916 247.778C405.916 247.778 390.489 265.084 391.04 270.283C389.864 270.198 388.687 270.123 387.527 270.095C373.978 269.729 367.378 269.448 371.558 275.36C383.489 292.206 380.794 319.348 378.633 333.247C379.017 325.457 378.683 319.46 377.223 308.564Z" fill="#2C1E1C"/>
</g>
<path d="M409.135 276.636C409.135 276.636 405.63 286.434 401.901 320.896C401.901 320.896 400.107 332.139 396.878 335.405C393.649 338.671 397.846 344.471 403.011 344.837C408.175 345.203 410.428 341.796 410.428 337.873C410.428 333.95 434.682 282.53 433.681 279.03C432.68 275.548 409.135 276.636 409.135 276.636Z" fill="#636363"/>
<path d="M350.716 343.626C346.202 342.172 368.821 334.683 368.821 334.683C368.821 334.683 368.804 334.645 368.788 334.598C371.9 334.607 375.971 334.589 378.466 334.561C378.466 336.419 379.759 339.75 379.1 342.481C377.765 348.019 355.23 345.081 350.716 343.626Z" fill="#5DB0D4"/>
<path d="M410.428 337.883C410.428 337.883 405.372 339.281 397.846 334.213C397.846 334.213 389.294 341.44 400.099 346.048C407.499 349.201 410.611 345.222 410.428 337.883Z" fill="#5DB0D4"/>
<path d="M419.084 342.784H429.889V283.048H419.084V342.784Z" fill="#235F8B"/>
<path d="M386.149 347.287H464.427V345.419L424.629 339.976L386.149 345.963V347.287Z" fill="#235F8B"/>
<path opacity="0.42" d="M423.678 340.689V283.046H429.885V340.689L464.427 345.419V347.287H458.219V345.419L423.678 340.689Z" fill="#102A42"/>
<path d="M472.637 145.05H414.426C408.251 145.05 403.304 150.822 403.537 157.766C404.213 177.456 404.53 215.672 398.381 240.692C395.536 252.283 387.401 261.32 377.022 264.192C371.732 265.656 366.81 269.541 373.376 276.468C389.662 293.651 462.509 297.509 474.94 261.987C485.002 233.222 484.176 180.375 483.534 156.903C483.35 150.305 478.519 145.05 472.637 145.05Z" fill="#090909"/>
<path opacity="0.55" d="M450.419 246.511C466.797 224.09 469.992 171.112 469.55 145.05H472.637C478.519 145.05 483.342 150.305 483.525 156.912C484.168 180.384 485.002 233.222 474.94 261.996C463.701 294.121 403.037 294.036 379.5 281.019C397.263 285.505 422.035 285.374 450.419 246.511Z" fill="#090909"/>
<path d="M426.28 131.554C426.28 130.09 430.343 127.913 431.487 131.864C432.63 135.815 429.893 140.432 426.28 138.687" fill="#CE8879"/>
<path d="M366.269 336.729C366.102 336.672 365.977 336.625 365.843 336.578L365.476 336.447L365.117 336.306C364.992 336.25 364.859 336.212 364.7 336.119C364.825 335.987 364.984 335.921 365.151 335.893C365.318 335.856 365.484 335.893 365.643 335.94C365.802 336.006 365.943 336.1 366.052 336.241C366.16 336.372 366.252 336.531 366.269 336.729Z" fill="#FFADCB"/>
<path d="M364.222 337.376C364.055 337.32 363.93 337.273 363.796 337.226L363.429 337.095L363.07 336.954C362.945 336.897 362.812 336.86 362.653 336.766C362.778 336.635 362.937 336.569 363.104 336.541C363.271 336.503 363.438 336.541 363.596 336.588C363.755 336.653 363.896 336.747 364.005 336.888C364.113 337.019 364.205 337.179 364.222 337.376Z" fill="#FFADCB"/>
<path d="M362.471 338.024C362.304 337.967 362.179 337.92 362.045 337.873L361.678 337.742L361.32 337.601C361.194 337.545 361.061 337.507 360.902 337.414C361.027 337.282 361.186 337.217 361.353 337.188C361.52 337.151 361.687 337.188 361.845 337.235C362.004 337.301 362.146 337.395 362.254 337.536C362.362 337.667 362.454 337.827 362.471 338.024Z" fill="#FFADCB"/>
<path opacity="0.44" d="M351.141 341.937C357.957 343.429 376.638 345.381 377.848 340.36C378.299 338.493 377.831 336.334 377.498 334.57C377.84 334.57 378.173 334.561 378.474 334.561C378.474 336.419 379.767 339.75 379.108 342.481C377.773 348.019 355.237 345.072 350.724 343.626C349.722 343.307 350.04 342.697 351.141 341.937Z" fill="#5DB0D4"/>
<path d="M321.204 339.976H336.072L334.136 220.139H323.14L321.204 339.976Z" fill="#102A42"/>
<path d="M323.14 241.748H334.137V232.372H323.14V241.748Z" fill="#102A42"/>
<path d="M181.858 241.748H192.854V232.372H181.858V241.748Z" fill="#102A42"/>
<path d="M311.318 56.5214C308.18 56.5214 305.636 59.3838 305.636 62.9125V93.8923C305.636 94.4836 306.061 94.9528 306.587 94.9434C307.513 94.934 308.297 95.713 308.397 96.7547L309.54 108.833L316.399 97.4211C317.475 96.0227 319.044 95.2156 320.687 95.2156H351.975C355.112 95.2156 357.657 92.3532 357.657 88.8244V62.9125C357.657 59.3838 355.112 56.5214 351.975 56.5214H311.318Z" fill="#EA8A61"/>
<path d="M314.464 66.6853H348.905" stroke="#FFADCB" stroke-width="0.5886" stroke-miterlimit="10" stroke-linecap="round"/>
<path d="M314.464 72.7386H348.905" stroke="#FFADCB" stroke-width="0.5886" stroke-miterlimit="10" stroke-linecap="round"/>
<path d="M314.464 78.8013H348.905" stroke="#FFADCB" stroke-width="0.5886" stroke-miterlimit="10" stroke-linecap="round"/>
<path d="M314.464 84.864H348.905" stroke="#FFADCB" stroke-width="0.5886" stroke-miterlimit="10" stroke-linecap="round"/>
<mask id="mask0_168_2929" style="mask-type:luminance" maskUnits="userSpaceOnUse" x="408" y="36" width="65" height="43">
<path d="M411.471 78.745L469.958 78.6699C471.343 78.6699 472.461 77.4029 472.461 75.845L472.419 38.8495C472.419 37.2916 471.293 36.034 469.908 36.034L411.421 36.1091C410.036 36.1091 408.918 37.376 408.918 38.9339L408.96 75.9295C408.96 77.4874 410.086 78.745 411.471 78.745Z" fill="white"/>
</mask>
<g mask="url(#mask0_168_2929)">
<path d="M408.964 78.7478L472.457 78.663L472.412 36.027L408.919 36.1119L408.964 78.7478Z" fill="#AE58D7"/>
<path opacity="0.4" d="M408.964 78.7478L472.457 78.663L472.412 36.027L408.919 36.1119L408.964 78.7478Z" fill="#AE58D7"/>
<path opacity="0.36" d="M440.682 50.2709L471.802 77.9284L409.619 78.0129L440.682 50.2709Z" fill="#AE58D7"/>
<path d="M440.682 51.8007L472.462 78.6605L408.969 78.745L440.682 51.8007Z" fill="#AE58D7"/>
<path opacity="0.18" d="M440.682 51.8007L472.462 78.6605L408.969 78.745L440.682 51.8007Z" fill="#AE58D7"/>
<path opacity="0.75" d="M443.402 62.3682L471.436 37.132L410.221 37.2164L437.996 62.3682C439.573 63.7853 441.825 63.7947 443.402 62.3682Z" fill="#AE58D7"/>
<path d="M443.284 60.773L472.411 36.0342L408.918 36.1186L438.095 60.7823C439.638 62.0775 441.749 62.0775 443.284 60.773Z" fill="#AE58D7"/>
</g>
</svg>
