<svg width="600" height="402" viewBox="0 0 600 402" fill="none" xmlns="http://www.w3.org/2000/svg">
<path d="M301.465 401.068C363.117 401.068 413.097 396.899 413.097 391.757C413.097 386.615 363.117 382.446 301.465 382.446C239.812 382.446 189.833 386.615 189.833 391.757C189.833 396.899 239.812 401.068 301.465 401.068Z" fill="#CDCAFF"/>
<path d="M387.871 96.8534V71.5403H363.548C361.853 63.7208 358.609 56.4419 354.14 49.9832L371.359 33.6079L352.542 15.7135L335.324 32.0888C328.542 27.8482 320.888 24.7539 312.656 23.1416V0H286.04V23.1322C277.818 24.7446 270.154 27.8295 263.372 32.0794L246.154 15.7042L227.338 33.5986L244.556 49.9738C240.097 56.4233 236.844 63.7022 235.148 71.531H210.825V96.8441H235.148C236.844 104.664 240.088 111.943 244.556 118.401L227.338 134.777L246.154 152.671L263.372 136.296C270.154 140.536 277.808 143.631 286.04 145.243V168.384H312.656V145.252C320.879 143.64 328.532 140.555 335.324 136.305L352.542 152.68L371.359 134.786L354.14 118.411C358.599 111.961 361.853 104.682 363.548 96.8534H387.871ZM299.348 117.208C280.179 117.208 264.637 102.427 264.637 84.1876C264.637 65.9576 280.179 51.1761 299.348 51.1761C318.517 51.1761 334.069 65.9576 334.069 84.1876C334.06 102.427 318.517 117.208 299.348 117.208Z" fill="#474568"/>
<g opacity="0.4">
<path d="M186.991 318.949H185.521" stroke="white" stroke-miterlimit="10"/>
<path d="M182.513 318.949H117.823" stroke="white" stroke-miterlimit="10" stroke-dasharray="3.07 3.07"/>
<path d="M116.324 318.949H114.854V317.551" stroke="white" stroke-miterlimit="10"/>
<path d="M114.854 314.727V186.092" stroke="white" stroke-miterlimit="10" stroke-dasharray="3.03 3.03"/>
<path d="M114.854 184.685V183.287H116.324" stroke="white" stroke-miterlimit="10"/>
<path d="M119.244 183.287H293.204" stroke="white" stroke-miterlimit="10" stroke-dasharray="2.98 2.98"/>
<path d="M294.664 183.287H296.134V181.889" stroke="white" stroke-miterlimit="10"/>
<path d="M296.134 179.056V95.4368" stroke="white" stroke-miterlimit="10" stroke-dasharray="3.04 3.04"/>
<path d="M296.134 94.0202V92.6222" stroke="white" stroke-miterlimit="10"/>
</g>
<g opacity="0.4">
<path d="M410.186 333.861H411.656" stroke="white" stroke-miterlimit="10"/>
<path d="M414.665 333.861H479.354" stroke="white" stroke-miterlimit="10" stroke-dasharray="3.07 3.07"/>
<path d="M480.864 333.861H482.334V332.463" stroke="white" stroke-miterlimit="10"/>
<path d="M482.333 329.639V201.004" stroke="white" stroke-miterlimit="10" stroke-dasharray="3.03 3.03"/>
<path d="M482.334 199.597V198.199H480.864" stroke="white" stroke-miterlimit="10"/>
<path d="M477.943 198.199H303.983" stroke="white" stroke-miterlimit="10" stroke-dasharray="2.98 2.98"/>
<path d="M302.523 198.199H301.053V196.801" stroke="white" stroke-miterlimit="10"/>
<path d="M301.053 193.968V110.349" stroke="white" stroke-miterlimit="10" stroke-dasharray="3.04 3.04"/>
<path d="M301.053 108.932V107.534" stroke="white" stroke-miterlimit="10"/>
</g>
<path d="M357.06 51.549H241.636C237.853 51.549 234.756 54.4941 234.756 58.0916V113.341C234.756 116.938 237.853 119.883 241.636 119.883H357.07C360.853 119.883 363.95 116.938 363.95 113.341V58.0916C363.94 54.4848 360.843 51.549 357.06 51.549Z" fill="#6A2DB7"/>
<path d="M359.55 62.8168H239.147V115.521H359.55V62.8168Z" fill="#C3A4FF"/>
<path d="M292.929 70.8134H244.115V72.6308H292.929V70.8134Z" fill="#FFD694"/>
<path d="M292.929 75.1752H244.115V76.9926H292.929V75.1752Z" fill="#FFD694"/>
<path d="M292.929 79.5369H244.115V81.3543H292.929V79.5369Z" fill="#FFD694"/>
<path d="M292.929 83.8987H244.115V85.7161H292.929V83.8987Z" fill="#FFD694"/>
<path d="M292.929 88.2604H244.115V90.0778H292.929V88.2604Z" fill="#FFD694"/>
<path d="M268.527 96.0706H244.115V97.888H268.527V96.0706Z" fill="#FFD694"/>
<path d="M268.527 99.1089H244.115V100.926H268.527V99.1089Z" fill="#FFD694"/>
<path d="M268.527 102.138H244.115V103.955H268.527V102.138Z" fill="#FFD694"/>
<path d="M268.527 105.176H244.115V106.994H268.527V105.176Z" fill="#FFD694"/>
<path d="M244.115 59.5362C245.117 59.5362 245.928 58.7642 245.928 57.812C245.928 56.8597 245.117 56.0878 244.115 56.0878C243.114 56.0878 242.302 56.8597 242.302 57.812C242.302 58.7642 243.114 59.5362 244.115 59.5362Z" fill="#FFD694"/>
<path d="M253.67 57.812C253.67 58.7626 252.857 59.5362 251.857 59.5362C250.858 59.5362 250.044 58.7626 250.044 57.812C250.044 56.8613 250.858 56.0878 251.857 56.0878C252.857 56.0878 253.67 56.8613 253.67 57.812Z" fill="#FFD694"/>
<path d="M259.599 59.5362C260.6 59.5362 261.412 58.7642 261.412 57.812C261.412 56.8597 260.6 56.0878 259.599 56.0878C258.598 56.0878 257.786 56.8597 257.786 57.812C257.786 58.7642 258.598 59.5362 259.599 59.5362Z" fill="#FFD694"/>
<path d="M346.555 92.6222H328.974V107.413H346.555V92.6222Z" fill="#FFD694"/>
<path d="M155.288 217.948V208.889H146.576C145.968 206.093 144.802 203.484 143.205 201.172L149.369 195.31L142.636 188.907L136.472 194.769C134.042 193.25 131.308 192.141 128.358 191.563V183.287H118.832V191.563C115.892 192.141 113.148 193.25 110.718 194.769L104.554 188.907L97.821 195.31L103.985 201.172C102.388 203.484 101.222 206.084 100.614 208.889H91.9116V217.948H100.614C101.222 220.744 102.388 223.354 103.985 225.665L97.821 231.527L104.554 237.93L110.718 232.068C113.148 233.587 115.882 234.696 118.832 235.274V243.56H128.358V235.274C131.298 234.696 134.042 233.587 136.472 232.068L142.636 237.93L149.369 231.527L143.205 225.665C144.802 223.354 145.968 220.754 146.576 217.948H155.288ZM123.605 225.236C116.745 225.236 111.178 219.943 111.178 213.419C111.178 206.895 116.745 201.601 123.605 201.601C130.465 201.601 136.031 206.895 136.031 213.419C136.031 219.943 130.465 225.236 123.605 225.236Z" fill="#474568"/>
<path d="M123.605 219.747C127.28 219.747 130.259 216.914 130.259 213.419C130.259 209.924 127.28 207.09 123.605 207.09C119.93 207.09 116.951 209.924 116.951 213.419C116.951 216.914 119.93 219.747 123.605 219.747Z" fill="#474568"/>
<path d="M173.369 163.063V159.269H169.723C169.469 158.095 168.979 157.005 168.312 156.035L170.89 153.584L168.067 150.9L165.49 153.351C164.471 152.718 163.324 152.252 162.089 152.009V148.542H158.101V152.009C156.866 152.252 155.719 152.718 154.7 153.351L152.123 150.9L149.3 153.584L151.878 156.035C151.211 157.005 150.721 158.095 150.466 159.269H146.821V163.063H150.466C150.721 164.237 151.211 165.327 151.878 166.297L149.3 168.748L152.123 171.432L154.7 168.981C155.719 169.615 156.866 170.081 158.101 170.323V173.79H162.089V170.323C163.324 170.081 164.471 169.615 165.49 168.981L168.067 171.432L170.89 168.748L168.312 166.297C168.979 165.327 169.469 164.237 169.723 163.063H173.369ZM160.09 166.11C157.219 166.11 154.886 163.892 154.886 161.161C154.886 158.431 157.219 156.213 160.09 156.213C162.961 156.213 165.294 158.431 165.294 161.161C165.304 163.892 162.971 166.11 160.09 166.11Z" fill="#474568"/>
<path d="M160.09 163.818C161.632 163.818 162.883 162.628 162.883 161.161C162.883 159.694 161.632 158.505 160.09 158.505C158.547 158.505 157.297 159.694 157.297 161.161C157.297 162.628 158.547 163.818 160.09 163.818Z" fill="#474568"/>
<g opacity="0.63">
<path d="M210.394 56.7868V46.3018H200.319C199.614 43.0584 198.271 40.0481 196.419 37.3732L203.553 30.5883L195.752 23.1695L188.618 29.9545C185.805 28.193 182.64 26.9162 179.23 26.2451V16.6642H168.205V26.2451C164.794 26.9162 161.629 28.193 158.816 29.9545L151.682 23.1695L143.881 30.5883L151.015 37.3732C149.163 40.0481 147.821 43.0584 147.115 46.3018H137.031V56.7868H147.105C147.811 60.0301 149.153 63.0405 151.006 65.7153L143.871 72.5003L151.672 79.919L158.806 73.1341C161.619 74.8955 164.784 76.1724 168.195 76.8434V86.4244H179.22V76.8434C182.63 76.1724 185.796 74.8955 188.608 73.1341L195.743 79.919L203.543 72.5003L196.409 65.7153C198.261 63.0405 199.604 60.0301 200.309 56.7868H210.394ZM173.712 65.2214C165.764 65.2214 159.326 59.0981 159.326 51.5396C159.326 43.9811 165.764 37.8579 173.712 37.8579C181.66 37.8579 188.099 43.9811 188.099 51.5396C188.099 59.0981 181.65 65.2214 173.712 65.2214Z" fill="#6A2DB7"/>
<path d="M173.712 58.8745C177.966 58.8745 181.415 55.5947 181.415 51.549C181.415 47.5032 177.966 44.2234 173.712 44.2234C169.458 44.2234 166.009 47.5032 166.009 51.549C166.009 55.5947 169.458 58.8745 173.712 58.8745Z" fill="#6A2DB7"/>
</g>
<g opacity="0.35">
<path d="M426.219 140.396V133.425H419.516C419.045 131.272 418.153 129.268 416.928 127.488L421.672 122.977L416.487 118.047L411.744 122.558C409.872 121.393 407.765 120.536 405.502 120.098V113.723H398.171V120.098C395.907 120.545 393.8 121.393 391.929 122.558L387.185 118.047L382.001 122.977L386.744 127.488C385.519 129.268 384.618 131.272 384.157 133.425H377.454V140.396H384.157C384.628 142.549 385.519 144.553 386.744 146.333L382.001 150.844L387.185 155.774L391.929 151.264C393.8 152.429 395.907 153.286 398.171 153.724V160.099H405.502V153.724C407.765 153.277 409.872 152.429 411.744 151.264L416.487 155.774L421.672 150.844L416.928 146.333C418.153 144.553 419.055 142.549 419.516 140.396H426.219ZM401.836 146.007C396.554 146.007 392.272 141.934 392.272 136.911C392.272 131.887 396.554 127.814 401.836 127.814C407.119 127.814 411.401 131.887 411.401 136.911C411.401 141.934 407.119 146.007 401.836 146.007Z" fill="#FFD694"/>
<path d="M406.962 136.911C406.962 139.604 404.669 141.785 401.836 141.785C399.004 141.785 396.711 139.604 396.711 136.911C396.711 134.217 399.004 132.036 401.836 132.036C404.669 132.036 406.962 134.227 406.962 136.911Z" fill="#FFD694"/>
</g>
<path d="M453.424 217.948C454.031 220.744 455.197 223.354 456.795 225.665L450.631 231.527L457.363 237.93L463.527 232.068C465.958 233.587 468.692 234.696 471.642 235.274V243.56H481.167V235.274C484.107 234.696 486.851 233.587 489.282 232.068L495.446 237.93L502.179 231.527L496.014 225.665C497.612 223.354 498.778 220.754 499.386 217.948H508.088V208.889H499.376C498.768 206.093 497.602 203.484 496.005 201.172L502.169 195.31L495.436 188.907L489.272 194.769C486.842 193.25 484.107 192.141 481.158 191.563V183.287H471.632V191.563C468.692 192.141 465.948 193.25 463.518 194.769L457.353 188.907L450.621 195.31L456.785 201.172C455.188 203.484 454.021 206.084 453.414 208.889H444.702V217.948H453.424ZM463.978 213.419C463.978 206.895 469.545 201.601 476.405 201.601C483.265 201.601 488.831 206.895 488.831 213.419C488.831 219.943 483.265 225.236 476.405 225.236C469.535 225.236 463.978 219.943 463.978 213.419Z" fill="#474568"/>
<path d="M476.405 219.747C480.08 219.747 483.059 216.914 483.059 213.419C483.059 209.924 480.08 207.09 476.405 207.09C472.73 207.09 469.75 209.924 469.75 213.419C469.75 216.914 472.73 219.747 476.405 219.747Z" fill="#474568"/>
<path d="M468.712 162.764C468.918 163.696 469.3 164.573 469.839 165.346L467.781 167.303L470.035 169.447L472.093 167.49C472.906 168.002 473.818 168.366 474.807 168.562V171.33H477.992V168.562C478.972 168.366 479.894 168.002 480.707 167.49L482.765 169.447L485.019 167.303L482.961 165.346C483.5 164.573 483.882 163.706 484.088 162.764H486.999V159.735H484.088C483.882 158.803 483.5 157.927 482.961 157.154L485.019 155.197L482.765 153.053L480.707 155.01C479.894 154.498 478.982 154.134 477.992 153.938V151.17H474.807V153.938C473.827 154.134 472.906 154.498 472.093 155.01L470.035 153.053L467.781 155.197L469.839 157.154C469.3 157.927 468.918 158.794 468.712 159.735H465.801V162.764H468.712ZM472.25 161.255C472.25 159.074 474.112 157.303 476.405 157.303C478.698 157.303 480.56 159.074 480.56 161.255C480.56 163.436 478.698 165.206 476.405 165.206C474.102 165.206 472.25 163.436 472.25 161.255Z" fill="#474568"/>
<path d="M474.17 161.255C474.17 162.42 475.17 163.37 476.395 163.37C477.62 163.37 478.62 162.42 478.62 161.255C478.62 160.09 477.62 159.139 476.395 159.139C475.17 159.13 474.17 160.08 474.17 161.255Z" fill="#474568"/>
<path d="M404.365 216.028H194.331C188.716 216.028 184.11 220.399 184.11 225.749V337.207C184.11 342.547 188.706 346.928 194.331 346.928H404.355C409.97 346.928 414.576 342.557 414.576 337.207V225.74C414.576 220.399 409.98 216.028 404.365 216.028Z" fill="#D3D2F7"/>
<path d="M414.586 233.298H184.12V328.847H414.586V233.298Z" fill="#6A2DB7"/>
<path d="M184.12 233.298V328.847C184.12 328.847 390.174 312.108 394.143 233.298H184.12Z" fill="#955AF2"/>
<path d="M362.705 285.192H292.527C291.939 285.192 291.449 284.735 291.449 284.167C291.449 283.608 291.929 283.142 292.527 283.142H362.705C363.293 283.142 363.783 283.598 363.783 284.167C363.783 284.735 363.303 285.192 362.705 285.192Z" fill="#C3A4FF"/>
<path d="M362.705 291.222H292.527C291.939 291.222 291.449 290.765 291.449 290.197C291.449 289.638 291.929 289.172 292.527 289.172H362.705C363.293 289.172 363.783 289.628 363.783 290.197C363.783 290.765 363.303 291.222 362.705 291.222Z" fill="url(#paint0_linear_111_213)"/>
<path d="M362.705 297.252H292.527C291.939 297.252 291.449 296.795 291.449 296.227C291.449 295.668 291.929 295.202 292.527 295.202H362.705C363.293 295.202 363.783 295.658 363.783 296.227C363.783 296.795 363.303 297.252 362.705 297.252Z" fill="#C3A4FF"/>
<path d="M362.705 303.282H292.527C291.939 303.282 291.449 302.825 291.449 302.257C291.449 301.698 291.929 301.232 292.527 301.232H362.705C363.293 301.232 363.783 301.688 363.783 302.257C363.783 302.816 363.303 303.282 362.705 303.282Z" fill="#C3A4FF"/>
<path d="M362.705 309.312H292.527C291.939 309.312 291.449 308.855 291.449 308.287C291.449 307.728 291.929 307.262 292.527 307.262H362.705C363.293 307.262 363.783 307.718 363.783 308.287C363.783 308.846 363.303 309.312 362.705 309.312Z" fill="#C3A4FF"/>
<path d="M299.348 395.792C327.465 395.792 350.259 390.234 350.259 383.378C350.259 376.522 327.465 370.964 299.348 370.964C271.231 370.964 248.437 376.522 248.437 383.378C248.437 390.234 271.231 395.792 299.348 395.792Z" fill="#D3D2F7"/>
<path d="M291.332 337.487C291.332 337.487 292.057 361.784 279.905 380.135H318.781C318.781 380.135 304.287 362.324 308.727 337.487H291.332Z" fill="#D3D2F7"/>
<path d="M284.814 370.964C284.814 370.964 305.61 364.98 307.443 346.918H290.567C290.567 346.918 289.303 358 284.814 370.964Z" fill="#9999B9"/>
<path d="M262.618 245.041H170.272C167.244 245.041 164.765 247.399 164.765 250.279V294.484C164.765 297.364 167.244 299.722 170.272 299.722H262.618C265.646 299.722 268.125 297.364 268.125 294.484V250.279C268.125 247.399 265.646 245.041 262.618 245.041Z" fill="#6A2DB7"/>
<path d="M264.607 254.063H168.283V296.227H264.607V254.063Z" fill="#C3A4FF"/>
<path d="M191.793 280.672H172.262V282.126H191.793V280.672Z" fill="#FFD694"/>
<path d="M191.793 283.095H172.262V284.549H191.793V283.095Z" fill="#FFD694"/>
<path d="M191.793 285.527H172.262V286.981H191.793V285.527Z" fill="#FFD694"/>
<path d="M191.793 287.951H172.262V289.405H191.793V287.951Z" fill="#FFD694"/>
<path d="M173.712 250.065C173.712 250.829 173.065 251.444 172.261 251.444C171.458 251.444 170.811 250.829 170.811 250.065C170.811 249.301 171.458 248.686 172.261 248.686C173.065 248.676 173.712 249.301 173.712 250.065Z" fill="#FFD694"/>
<path d="M179.906 250.065C179.906 250.829 179.259 251.444 178.455 251.444C177.652 251.444 177.005 250.829 177.005 250.065C177.005 249.301 177.652 248.686 178.455 248.686C179.249 248.676 179.906 249.301 179.906 250.065Z" fill="#FFD694"/>
<path d="M186.099 250.065C186.099 250.829 185.452 251.444 184.649 251.444C183.845 251.444 183.198 250.829 183.198 250.065C183.198 249.301 183.845 248.686 184.649 248.686C185.442 248.676 186.099 249.301 186.099 250.065Z" fill="#FFD694"/>
<path d="M233.717 258.425H219.654V290.998H233.717V258.425Z" fill="#FFD694"/>
<path d="M437.528 265.89H381.727V318.958H437.528V265.89Z" stroke="#FFD694" stroke-miterlimit="10"/>
<path d="M391.782 292.415L402.425 305.454L428.434 276.142" stroke="#FFD694" stroke-width="2" stroke-miterlimit="10"/>
<path d="M345.781 382.446C345.781 385.363 333.952 387.731 319.36 387.731C304.768 387.731 292.939 385.363 292.939 382.446C292.939 379.529 304.768 377.162 319.36 377.162C333.952 377.162 345.781 379.529 345.781 382.446Z" fill="#858599"/>
<path d="M244.556 111.029H209.247V144.609H244.556V111.029Z" stroke="#C3A4FF" stroke-width="2" stroke-miterlimit="10"/>
<path d="M215.607 127.824L222.34 136.072L238.804 117.525" stroke="#C3A4FF" stroke-width="2" stroke-miterlimit="10"/>
<path d="M139.716 142.009H117.146C114.001 142.009 111.453 144.432 111.453 147.424V199.793C111.453 202.785 114.001 205.208 117.146 205.208H139.716C142.862 205.208 145.41 202.785 145.41 199.793V147.424C145.41 144.432 142.862 142.009 139.716 142.009Z" fill="#6A2DB7"/>
<path d="M144.018 147.303H112.844V199.122H144.018V147.303Z" fill="#C3A4FF"/>
<path d="M132.277 144.656H124.584V145.289H132.277V144.656Z" fill="#8158FC"/>
<path d="M130.533 201.955C130.533 203.055 129.592 203.95 128.436 203.95C127.28 203.95 126.339 203.055 126.339 201.955C126.339 200.855 127.28 199.961 128.436 199.961C129.592 199.961 130.533 200.855 130.533 201.955Z" fill="#8158FC"/>
<path d="M140.215 158.85H116.656V170.239H140.215V158.85Z" fill="#FFD694"/>
<path d="M460.95 153.864H439.096C436.048 153.864 433.579 156.213 433.579 159.111V209.821C433.579 212.72 436.048 215.068 439.096 215.068H460.95C463.998 215.068 466.467 212.72 466.467 209.821V159.111C466.467 156.213 463.998 153.864 460.95 153.864Z" fill="#6A2DB7"/>
<path d="M465.115 158.99H434.931V209.169H465.115V158.99Z" fill="#C3A4FF"/>
<path d="M453.747 156.427H446.299V157.042H453.747V156.427Z" fill="#8158FC"/>
<path d="M450.023 213.847C451.144 213.847 452.052 212.984 452.052 211.918C452.052 210.853 451.144 209.989 450.023 209.989C448.903 209.989 447.995 210.853 447.995 211.918C447.995 212.984 448.903 213.847 450.023 213.847Z" fill="#8158FC"/>
<path d="M446.299 168.795H439.213V199.383H446.299V168.795Z" fill="#6A2DB7"/>
<path d="M461.283 171.395H451.101V181.078H461.283V171.395Z" fill="#FFD694"/>
<path d="M461.283 186.503H451.101V196.186H461.283V186.503Z" fill="#FFD694"/>
<path d="M363.636 203.456H317.42C312.872 203.456 309.148 206.997 309.148 211.322V255.275C309.148 259.599 312.872 263.141 317.42 263.141H363.636C368.184 263.141 371.908 259.599 371.908 255.275V211.322C371.917 206.997 368.193 203.456 363.636 203.456Z" fill="#6A2DB7"/>
<path d="M366.959 215.311H314.107V256.803H366.959V215.311Z" fill="#C3A4FF"/>
<path d="M340.352 233.82C344.243 233.82 347.398 230.82 347.398 227.119C347.398 223.418 344.243 220.418 340.352 220.418C336.46 220.418 333.306 223.418 333.306 227.119C333.306 230.82 336.46 233.82 340.352 233.82Z" fill="#FFD694"/>
<path d="M353.866 252.358H327.21V245.191C327.21 239.589 331.983 235.041 337.882 235.041H343.204C349.093 235.041 353.876 239.58 353.876 245.191V252.358H353.866Z" fill="#FFD694"/>
<path d="M315.675 211.154C316.541 211.154 317.243 210.486 317.243 209.663C317.243 208.839 316.541 208.172 315.675 208.172C314.809 208.172 314.107 208.839 314.107 209.663C314.107 210.486 314.809 211.154 315.675 211.154Z" fill="#FFD694"/>
<path d="M323.084 209.663C323.084 210.492 322.379 211.154 321.516 211.154C320.644 211.154 319.948 210.483 319.948 209.663C319.948 208.833 320.654 208.172 321.516 208.172C322.379 208.172 323.084 208.843 323.084 209.663Z" fill="#FFD694"/>
<path d="M327.347 211.154C328.213 211.154 328.915 210.486 328.915 209.663C328.915 208.839 328.213 208.172 327.347 208.172C326.481 208.172 325.779 208.839 325.779 209.663C325.779 210.486 326.481 211.154 327.347 211.154Z" fill="#FFD694"/>
<path opacity="0.34" d="M496.054 56.4792H416.321C415.625 56.4792 415.057 55.9386 415.057 55.2769V52.4716C415.057 51.8098 415.625 51.2693 416.321 51.2693H496.054C496.749 51.2693 497.318 51.8098 497.318 52.4716V55.2769C497.318 55.9386 496.749 56.4792 496.054 56.4792Z" fill="#FFD694"/>
<path opacity="0.34" d="M496.054 68.0266H416.321C415.625 68.0266 415.057 67.4861 415.057 66.8244V64.019C415.057 63.3573 415.625 62.8168 416.321 62.8168H496.054C496.749 62.8168 497.318 63.3573 497.318 64.019V66.8244C497.318 67.4861 496.749 68.0266 496.054 68.0266Z" fill="#FFD694"/>
<path opacity="0.34" d="M496.053 79.5741H438.792C438.096 79.5741 437.528 79.0336 437.528 78.3719V75.5665C437.528 74.9048 438.096 74.3643 438.792 74.3643H496.053C496.749 74.3643 497.318 74.9048 497.318 75.5665V78.3719C497.318 79.0336 496.749 79.5741 496.053 79.5741Z" fill="#FFD694"/>
<path opacity="0.34" d="M496.054 91.1216H429.698C429.002 91.1216 428.434 90.5811 428.434 89.9193V86.9276C428.434 86.2659 429.002 85.7253 429.698 85.7253H496.054C496.749 85.7253 497.318 86.2659 497.318 86.9276V89.9193C497.318 90.5717 496.749 91.1216 496.054 91.1216Z" fill="#FFD694"/>
<path opacity="0.34" d="M496.054 102.66H416.321C415.625 102.66 415.057 102.119 415.057 101.457V98.6522C415.057 97.9904 415.625 97.4499 416.321 97.4499H496.054C496.749 97.4499 497.318 97.9904 497.318 98.6522V101.457C497.318 102.119 496.749 102.66 496.054 102.66Z" fill="#FFD694"/>
<path opacity="0.34" d="M163.324 340.189H124.722C124.026 340.189 123.458 339.649 123.458 338.987V338.791C123.458 338.13 124.026 337.589 124.722 337.589H163.324C164.02 337.589 164.589 338.13 164.589 338.791V338.987C164.589 339.649 164.02 340.189 163.324 340.189Z" fill="#C3A4FF"/>
<path opacity="0.34" d="M163.324 345.968H124.722C124.026 345.968 123.458 345.427 123.458 344.765V344.57C123.458 343.908 124.026 343.367 124.722 343.367H163.324C164.02 343.367 164.589 343.908 164.589 344.57V344.765C164.589 345.427 164.02 345.968 163.324 345.968Z" fill="#C3A4FF"/>
<path opacity="0.34" d="M156.033 351.737H124.722C124.026 351.737 123.458 351.196 123.458 350.535C123.458 349.873 124.026 349.332 124.722 349.332H156.033C156.729 349.332 157.297 349.873 157.297 350.535C157.307 351.196 156.739 351.737 156.033 351.737Z" fill="#C3A4FF"/>
<path opacity="0.34" d="M163.324 357.515H124.722C124.026 357.515 123.458 356.975 123.458 356.313V356.117C123.458 355.455 124.026 354.915 124.722 354.915H163.324C164.02 354.915 164.589 355.455 164.589 356.117V356.313C164.589 356.965 164.02 357.515 163.324 357.515Z" fill="#C3A4FF"/>
<path opacity="0.34" d="M163.324 363.284H124.722C124.026 363.284 123.458 362.744 123.458 362.082V361.886C123.458 361.225 124.026 360.684 124.722 360.684H163.324C164.02 360.684 164.589 361.225 164.589 361.886V362.082C164.589 362.744 164.02 363.284 163.324 363.284Z" fill="#C3A4FF"/>
<defs>
<linearGradient id="paint0_linear_111_213" x1="291.454" y1="290.198" x2="363.783" y2="290.198" gradientUnits="userSpaceOnUse">
<stop stop-color="white"/>
<stop offset="1"/>
</linearGradient>
</defs>
</svg>
